<mxfile host="app.diagrams.net" modified="2024-03-04T15:29:13.404Z" agent="Mozilla/5.0 (Windows NT 10.0; Win64; x64) AppleWebKit/537.36 (KHTML, like Gecko) Chrome/121.0.0.0 Safari/537.36 Edg/121.0.0.0" etag="d5L-Fa6jn4GWDRQW4pue" version="24.0.1" type="device">
  <diagram name="Page-1" id="r_JvOzuq-2iBqOJ9ar-h">
    <mxGraphModel dx="1066" dy="613" grid="1" gridSize="10" guides="1" tooltips="1" connect="1" arrows="1" fold="1" page="1" pageScale="1" pageWidth="827" pageHeight="1169" math="0" shadow="0">
      <root>
        <mxCell id="0" />
        <mxCell id="1" parent="0" />
        <mxCell id="FZDb_1K59FNx91PUfOuP-1" value="utilisateur" style="shape=umlActor;verticalLabelPosition=bottom;verticalAlign=top;html=1;outlineConnect=0;" vertex="1" parent="1">
          <mxGeometry x="90" y="260" width="30" height="60" as="geometry" />
        </mxCell>
        <mxCell id="FZDb_1K59FNx91PUfOuP-6" value="installation" style="ellipse;whiteSpace=wrap;html=1;" vertex="1" parent="1">
          <mxGeometry x="300" y="80" width="120" height="80" as="geometry" />
        </mxCell>
        <mxCell id="FZDb_1K59FNx91PUfOuP-8" value="visualiser les données à distance&amp;nbsp;" style="ellipse;whiteSpace=wrap;html=1;" vertex="1" parent="1">
          <mxGeometry x="300" y="380" width="120" height="80" as="geometry" />
        </mxCell>
        <mxCell id="FZDb_1K59FNx91PUfOuP-9" value="suivre l&#39;évolution des mesures à distance sur une journée avec des relevés toutes les 5 min" style="ellipse;whiteSpace=wrap;html=1;" vertex="1" parent="1">
          <mxGeometry x="260" y="260" width="200" height="110" as="geometry" />
        </mxCell>
        <mxCell id="FZDb_1K59FNx91PUfOuP-10" value="visualiser les mesures actuelles" style="ellipse;whiteSpace=wrap;html=1;" vertex="1" parent="1">
          <mxGeometry x="300" y="170" width="120" height="80" as="geometry" />
        </mxCell>
        <mxCell id="FZDb_1K59FNx91PUfOuP-11" value="" style="endArrow=none;html=1;rounded=0;entryX=0;entryY=0.5;entryDx=0;entryDy=0;" edge="1" parent="1" target="FZDb_1K59FNx91PUfOuP-9">
          <mxGeometry width="50" height="50" relative="1" as="geometry">
            <mxPoint x="130" y="300" as="sourcePoint" />
            <mxPoint x="240" y="290" as="targetPoint" />
          </mxGeometry>
        </mxCell>
        <mxCell id="FZDb_1K59FNx91PUfOuP-12" value="" style="endArrow=none;html=1;rounded=0;entryX=0;entryY=0.5;entryDx=0;entryDy=0;" edge="1" parent="1" target="FZDb_1K59FNx91PUfOuP-8">
          <mxGeometry width="50" height="50" relative="1" as="geometry">
            <mxPoint x="130" y="320" as="sourcePoint" />
            <mxPoint x="210" y="410" as="targetPoint" />
          </mxGeometry>
        </mxCell>
        <mxCell id="FZDb_1K59FNx91PUfOuP-13" value="" style="endArrow=none;html=1;rounded=0;" edge="1" parent="1">
          <mxGeometry width="50" height="50" relative="1" as="geometry">
            <mxPoint x="130" y="280" as="sourcePoint" />
            <mxPoint x="300" y="210" as="targetPoint" />
          </mxGeometry>
        </mxCell>
        <mxCell id="FZDb_1K59FNx91PUfOuP-14" value="" style="endArrow=none;html=1;rounded=0;entryX=0.025;entryY=0.688;entryDx=0;entryDy=0;entryPerimeter=0;" edge="1" parent="1" target="FZDb_1K59FNx91PUfOuP-6">
          <mxGeometry width="50" height="50" relative="1" as="geometry">
            <mxPoint x="130" y="270" as="sourcePoint" />
            <mxPoint x="180" y="250" as="targetPoint" />
          </mxGeometry>
        </mxCell>
      </root>
    </mxGraphModel>
  </diagram>
</mxfile>
